<svg width="178" height="123" viewBox="0 0 178 123" fill="none" xmlns="http://www.w3.org/2000/svg">
  <path d="M62.1124 57.5273C67.5316 28.7635 107.967 28.7634 116.304 57.5273M34.5995 35.0165L49.1897 41.6862M56.2763 12.5059L65.4473 26.2623M88.3747 1.66748V19.5926M121.724 12.5059L112.553 26.2623M143.401 34.5996L128.81 41.6862" stroke="black" stroke-width="3.3349" stroke-linecap="round" stroke-linejoin="round"/>
  <path d="M3.80267 57.7441C3.9069 57.5535 4.14044 57.4748 4.3388 57.5634C28.4834 68.3472 47.5914 74.0863 90.456 75.4521L93.6816 75.413C126.495 74.8861 143.491 70.545 171.178 59.6405C171.362 59.5678 171.573 59.6359 171.681 59.8027C171.788 59.9693 171.763 60.1887 171.621 60.3271C157.573 74.0105 143.431 84.0447 128.09 88.3593C114.113 92.2902 107.437 94.5457 96.8095 96.2587C109.757 97.8762 119.973 98.5305 135.808 95.0546C144.24 93.2035 152.21 87.7926 159.28 81.3818C166.346 74.9748 172.475 67.6054 177.236 61.8788L177.263 61.8466C177.389 61.6946 177.605 61.6522 177.779 61.745C177.954 61.8379 178.039 62.0408 177.983 62.2304C176.517 67.2373 174.93 72.0183 173.141 76.0907C171.354 80.1564 169.349 83.552 167.032 85.7587C167.029 85.7621 167.025 85.7662 167.021 85.7694C164.228 88.245 161.204 91.0751 152.254 95.1318C153.95 95.1748 155.424 95.0735 156.923 94.789C158.914 94.411 160.969 93.7083 163.666 92.5761C163.852 92.4983 164.067 92.565 164.177 92.7343C164.286 92.9035 164.259 93.1267 164.112 93.2646C154.311 102.44 145.841 109.595 134.839 114.484C123.834 119.374 110.328 121.984 90.4628 122.141C70.5869 122.316 56.6729 120.38 44.9452 115.641C33.2151 110.9 23.7094 103.369 12.6298 92.4237C12.4806 92.2764 12.4645 92.0407 12.5917 91.8739C12.7191 91.7073 12.9503 91.6615 13.1318 91.7665C25.0091 98.6428 35.9443 102.697 42.2197 104.637C31.7276 99.4999 23.8198 94.4457 17.4316 88.7616C10.1963 82.3239 4.92543 75.0939 0.0497401 66.0624C-0.0372414 65.9009 -0.00807309 65.7015 0.121029 65.5712C0.250408 65.4409 0.450039 65.4101 0.61224 65.496C22.8504 77.3068 37.2368 88.797 68.3818 90.0429C97.0443 91.1894 117.169 84.5006 134.559 77.3642C114.247 81.9575 100.906 84.1138 75.0234 83.373C75.0185 83.3728 75.0136 83.3723 75.0087 83.372C57.2601 82.2226 44.1787 79.0232 33.1835 74.5693C22.1927 70.117 13.3001 64.416 3.94037 58.2929C3.75865 58.1739 3.69867 57.9348 3.80267 57.7441ZM58.7656 113.387C58.5727 113.392 58.4083 113.53 58.3691 113.719C58.33 113.908 58.426 114.099 58.6005 114.181C67.4171 118.295 73.885 119.544 88.372 119.64C88.5921 119.641 88.7749 119.47 88.79 119.251C88.8046 119.031 88.6461 118.837 88.4277 118.809C82.0035 117.98 77.628 116.551 73.3251 115.358C69.0159 114.164 64.8019 113.215 58.7656 113.387ZM147.615 100.05C144.715 99.7296 142.846 99.8083 138.709 100.894C138.703 100.896 138.697 100.898 138.691 100.899C135.77 101.808 134.376 103.06 131.091 105.113C130.303 105.606 128.532 106.337 126.096 107.191C123.675 108.04 120.635 108.998 117.342 109.949C110.752 111.853 103.162 113.724 97.4794 114.642C97.2615 114.678 97.1084 114.877 97.1308 115.097C97.1533 115.316 97.3439 115.48 97.5644 115.471C120.527 114.469 133.361 110.456 147.801 100.81C147.946 100.713 148.016 100.535 147.975 100.365C147.933 100.195 147.789 100.069 147.615 100.05ZM18.0888 81.7392C17.8942 81.656 17.6675 81.7312 17.5624 81.915C17.4575 82.0987 17.5074 82.3325 17.6777 82.4579C26.7314 89.1094 37.9023 96.1038 48.6913 101.594C59.4664 107.076 69.9126 111.085 77.5019 111.718C92.6061 112.976 101.686 109.125 116.84 104.615C117.038 104.556 117.164 104.36 117.134 104.155C117.104 103.951 116.927 103.799 116.721 103.799H116.669C116.634 103.799 116.581 103.798 116.512 103.798C116.373 103.797 116.166 103.796 115.895 103.793C115.354 103.787 114.556 103.776 113.532 103.753C111.484 103.707 108.531 103.617 104.914 103.434C97.6792 103.07 87.7904 102.342 77.1757 100.885C66.5946 99.4323 51.8334 94.6527 39.6923 90.2236C33.6274 88.011 28.2251 85.8896 24.3398 84.3212C22.3975 83.5371 20.8341 82.891 19.7568 82.4413C19.2184 82.2166 18.8008 82.0413 18.5185 81.9218C18.3774 81.8621 18.2693 81.8158 18.1972 81.7851C18.1616 81.7699 18.1342 81.7586 18.1161 81.7509C18.1073 81.7471 18.1001 81.744 18.0956 81.7421C18.0936 81.7411 18.0918 81.7396 18.0908 81.7392H18.0888Z" fill="black"/>
</svg>
